<svg xmlns="http://www.w3.org/2000/svg" viewBox="0 0 507.06 303.32"><defs><style>.a{fill:#fff;}</style></defs><path class="a" d="M250.32,194.79c-9.24,52.72-47.93,87.63-117.12,87.63-82.58,0-122.48-55.74-122.48-128.91C10.72,82.13,50.15,20.9,136.77,20.9c74.1,0,107.84,43.08,112.8,86.73H176.24c-3.36-18.22-13.88-34.81-41.17-34.81-35.91,0-48.16,34.09-48.16,78.11,0,40,10.2,79.44,49,79.44,29.38,0,37.59-21.33,40.74-35.58Z"/><path class="a" d="M496.34,194.79c-9.24,52.72-47.93,87.63-117.12,87.63-82.58,0-122.48-55.74-122.48-128.91,0-71.38,39.43-132.61,126.05-132.61,74.1,0,107.84,43.08,112.8,86.73H422.26c-3.36-18.22-13.88-34.81-41.17-34.81-35.91,0-48.16,34.09-48.16,78.11,0,40,10.2,79.44,49,79.44,29.38,0,37.59-21.33,40.74-35.58Z"/></svg>